PathFileType	4	(X/Y/Z)	1_coords_data.trc
DataRate	CameraRate	NumFrames	NumMarkers	Units	OrigDataRate	OrigDataStartFrame	OrigNumFrames
30.0	30.0	8	21	m	30.0	32	62
Frame#	Time	THUMB_TIP	THUMB_IP	THUMB_MCP	THUMB_CMC	INDEX_TIP	INDEX_DIP	INDEX_PIP	INDEX_MCP	MIDDLE_TIP	MIDDLE_DIP	MIDDLE_PIP	MIDDLE_MCP	RING_TIP	RING_DIP	RING_PIP	RING_MCP	PINKY_TIP	PINKY_DIP	PINKY_PIP	PINKY_MCP	WRIST
X1	Y1	Z1	X2	Y2	Z2	X3	Y3	Z3	X4	Y4	Z4	X5	Y5	Z5	X6	Y6	Z6	X7	Y7	Z7	X8	Y8	Z8	X9	Y9	Z9	X10	Y10	Z10	X11	Y11	Z11	X12	Y12	Z12	X13	Y13	Z13	X14	Y14	Z14	X15	Y15	Z15	X16	Y16	Z16	X17	Y17	Z17	X18	Y18	Z18	X19	Y19	Z19	X20	Y20	Z20	X21	Y21	Z21
31	1.0333333333333334	0.01936989974975586	0.04326639938354492	0.941322998046875	0.028163700103759765	0.04758330154418945	0.9640079956054688	0.024780000686645508	0.049469200134277344	0.9906339721679688	0.000130034998059272	0.05760329818725586	1.0037999877929686	0.06388669967651367	-0.03118390083312988	0.9259110107421875	0.05345840072631836	-0.02520039939880371	0.9447930297851562	0.04252529907226563	-0.01743499946594238	0.9616900024414062	0.024122800827026367	0.004941060066223145	0.983864013671875	0.025022600173950197	0.03396889877319336	0.9679630126953125	0.02831100082397461	0.027415399551391603	0.9493359985351563	0.022274799346923828	0.005376029968261719	0.9409429931640625	0.00046943101286888106	-0.0017777600288391112	0.9754860229492187	0.00905508041381836	0.04322100067138672	0.96218701171875	0.009363900184631348	0.034059101104736325	0.9445449829101562	0.0004542790055274961	0.014090900421142577	0.935697021484375	-0.017601200103759766	0.007942359924316406	0.9669359741210938	-0.02654570007324219	0.005628310203552246	0.900114990234375	-0.028644100189208984	0.009541179656982422	0.9189920043945312	-0.029409500122070314	0.013748499870300293	0.9355020141601562	-0.027839099884033203	0.024329200744628906	0.9602979736328126	-0.03043670082092285	0.04976900100708008	1.0211699829101561
32	1.0666666666666667	0.01874370002746582	0.041541099548339844	0.9429739990234375	0.028048999786376955	0.04516579818725586	0.9653170166015625	0.02466119956970215	0.04659980010986328	0.9918740234375	-0.00036627000570297203	0.05522209930419922	1.0048800048828126	0.061951698303222655	-0.027678300857543945	0.9252039794921875	0.051486099243164066	-0.024885299682617188	0.9444660034179687	0.040327999114990236	-0.019236499786376954	0.9620390014648438	0.022521400451660158	0.0018553999662399292	0.9848920288085937	0.023857400894165038	0.032105598449707035	0.9694509887695313	0.027252899169921876	0.025320899963378905	0.950927001953125	0.020861900329589844	0.003481659889221191	0.941927001953125	-0.0014272099733352661	-0.0039935998916625975	0.9761279907226562	0.008519390106201171	0.041333099365234376	0.9625089721679687	0.008499159812927246	0.03249879837036133	0.9459630126953125	-0.000727452993392944	0.013082500457763671	0.9368489990234375	-0.019090499877929688	0.006289169788360595	0.9671859741210938	-0.02746769905090332	0.004779610157012939	0.9009500122070313	-0.02965679931640625	0.008667790412902832	0.919833984375	-0.030541900634765626	0.012764599800109864	0.93635400390625	-0.028903799057006838	0.0231825008392334	0.96168798828125	-0.031155799865722655	0.04815340042114258	1.0223800048828124
33	1.1	0.0196387996673584	0.040421100616455076	0.9445590209960938	0.02846240043640137	0.042449100494384766	0.9675889892578124	0.02425079917907715	0.042714900970458984	0.9944210205078124	-0.001051210045814514	0.05194499969482422	1.0073800048828125	0.05928469848632813	-0.022364599227905273	0.9226179809570313	0.04862229919433594	-0.02301689910888672	0.9418800048828125	0.03735660171508789	-0.020323699951171875	0.9601439819335937	0.019978099822998047	-0.0019247100353240961	0.985510009765625	0.02343790054321289	0.02955109977722168	0.9707470092773437	0.026593299865722658	0.02313330078125	0.9516649780273437	0.01895669937133789	0.001751309990882873	0.9417839965820313	-0.003873640060424804	-0.005995969772338867	0.9756339721679688	0.008751290321350098	0.03997610092163086	0.9641619873046875	0.008594639778137207	0.03140900039672852	0.946927978515625	-0.0018102200031280512	0.012716099739074707	0.9372659912109375	-0.02100629997253418	0.005571119785308838	0.9672030029296875	-0.0268169002532959	0.009301259994506835	0.9003629760742188	-0.02976300048828125	0.011685199737548828	0.9191420288085937	-0.031300699234008786	0.014516300201416015	0.9359600219726563	-0.03055940055847168	0.02288249969482422	0.9623060302734375	-0.032392799377441404	0.04566170120239258	1.0242900390625
34	1.1333333333333333	0.024376199722290038	0.03841419982910156	0.9461010131835937	0.03022879981994629	0.03858300018310547	0.9702930297851563	0.024200799942016602	0.03759629821777344	0.996833984375	-0.001511780023574829	0.04772859954833984	1.0089299926757813	0.05442850112915039	-0.019753700256347657	0.9201719970703125	0.04363940048217774	-0.023047500610351563	0.9387039794921875	0.032195899963378904	-0.022414800643920898	0.9575180053710938	0.01548859977722168	-0.0063783698081970215	0.9853870239257813	0.02355470085144043	0.02633989906311035	0.9679190063476563	0.025054399490356444	0.01872990036010742	0.948510986328125	0.014833900451660156	-0.002389450073242187	0.9400609741210938	-0.00779748010635376	-0.007748950004577637	0.9745269775390625	0.011150300025939941	0.039882801055908204	0.9613839721679688	0.008506509780883789	0.03015329933166504	0.9452979736328125	-0.004485290050506591	0.011379599571228027	0.9362860107421875	-0.02408250045776367	0.0054236998558044435	0.9665770263671875	-0.02807539939880371	0.01569279956817627	0.900093994140625	-0.031423200607299806	0.01649370002746582	0.9184450073242187	-0.033402000427246094	0.017722000122070314	0.93556201171875	-0.03294049835205078	0.023645599365234374	0.9629669799804688	-0.03352130126953125	0.04339870071411133	1.02572998046875
35	1.1666666666666667	0.033397499084472655	0.0364364013671875	0.948405029296875	0.03288079833984375	0.03427109909057617	0.97372998046875	0.023943399429321287	0.03220890045166016	1.0001500244140624	-0.002846460103988647	0.043292999267578125	1.0106400146484376	0.04997719955444336	-0.020242300033569336	0.9185479736328125	0.03873970031738281	-0.024660600662231445	0.9362960205078125	0.026818599700927735	-0.025112699508666993	0.9550570068359375	0.01051609992980957	-0.010193300247192384	0.9843790283203125	0.02606679916381836	0.0253125	0.9596129760742188	0.023314599990844728	0.014229000091552734	0.94210302734375	0.00963739013671875	-0.0067860898971557615	0.9372429809570313	-0.0120649995803833	-0.008505229949951171	0.9730089721679688	0.017448200225830077	0.04022109985351562	0.9506199951171875	0.008818719863891602	0.026777000427246095	0.938218994140625	-0.00826753044128418	0.008143210411071777	0.9339019775390625	-0.027218999862670897	0.006285550117492676	0.96560302734375	-0.030318700790405273	0.021441699981689454	0.8999119873046875	-0.03391910171508789	0.02070199966430664	0.9179840087890625	-0.03607559967041016	0.020730600357055665	0.93531201171875	-0.0354286003112793	0.024681499481201172	0.9626699829101563	-0.03503369903564453	0.040676998138427733	1.02731005859375
36	1.2	0.042942001342773435	0.029802200317382812	0.953698974609375	0.035075298309326174	0.0259601993560791	0.9787979736328125	0.023354000091552734	0.023684999465942384	1.0040800170898438	-0.004029850006103516	0.03727420043945313	1.0128099975585938	0.043395099639892576	-0.021585699081420898	0.9160859985351563	0.031514299392700194	-0.026692399978637694	0.9333140258789062	0.019259000778198244	-0.02763319969177246	0.95202197265625	0.003925669908523559	-0.01429360008239746	0.982114990234375	0.030520999908447265	0.017969499588012694	0.936572021484375	0.018746700286865235	0.003629729986190796	0.9285239868164062	4.0813401341438e-05	-0.013549400329589843	0.9333920288085937	-0.017287900924682617	-0.00773061990737915	0.971343017578125	0.018681800842285157	0.030096500396728516	0.9312000122070313	0.004725369930267334	0.016863700866699218	0.9262869873046875	-0.015683300018310548	0.002712130069732666	0.9312169799804687	-0.02959510040283203	0.008903059959411621	0.9646640014648438	-0.030962499618530273	0.03063249969482422	0.900469970703125	-0.03485810089111328	0.028368499755859374	0.9183109741210937	-0.03745299911499023	0.02661289978027344	0.93522900390625	-0.037181900024414065	0.02768000030517578	0.9631500244140625	-0.036380699157714844	0.03839400100708008	1.029510009765625
37	1.2333333333333334	0.04959709930419922	0.017040800094604493	0.960427978515625	0.03600970077514649	0.014266200065612793	0.98397998046875	0.021521299362182618	0.013293000221252441	1.0083800048828124	-0.004536670207977295	0.030383800506591795	1.0150700073242187	0.034466400146484374	-0.023274200439453125	0.9128040161132812	0.021957599639892578	-0.028810600280761718	0.9294990234375	0.009511560440063476	-0.030193599700927734	0.9482559814453125	-0.003964900016784668	-0.017517900466918944	0.979822021484375	0.023255100250244142	0.002288100004196167	0.909093017578125	0.0056755499839782715	-0.008282320022583008	0.9142979736328125	-0.013257800102233886	-0.017485700607299804	0.9300889892578125	-0.02214900016784668	-0.006648709774017334	0.9687680053710938	0.012289799690246583	0.019329700469970703	0.9155869750976563	-0.0056475200653076174	0.009873350143432618	0.917780029296875	-0.025955799102783204	0.00217982006072998	0.930125	-0.031728799819946286	0.011439499855041503	0.9624869995117188	-0.026095300674438476	0.04262969970703125	0.90377099609375	-0.03152919960021973	0.03870380020141601	0.921073974609375	-0.035662700653076175	0.03514519882202148	0.93764697265625	-0.03741339874267578	0.03111750030517578	0.9636320190429688	-0.036852699279785156	0.03560219955444336	1.0324200439453124
38	1.2666666666666666	0.05127370071411133	0.0049760198593139645	0.9652529907226562	0.0350723991394043	0.0044529900550842275	0.9877310180664063	0.019011999130249025	0.005097660064697265	1.0111799926757812	-0.0057096099853515625	0.024154199600219726	1.0190599975585937	0.026302400588989257	-0.024489700317382814	0.9096649780273437	0.013854299545288086	-0.02988050079345703	0.9261900024414063	0.0018232200145721432	-0.031300500869750975	0.9450490112304688	-0.009483759880065917	-0.019440500259399415	0.9779920043945313	0.006965489864349366	-0.008015029907226563	0.8913690185546875	-0.008634469985961913	-0.013050800323486328	0.9064509887695312	-0.023003999710083007	-0.016816200256347655	0.9287750244140625	-0.02617329978942871	-0.005821760177612305	0.9676519775390625	-0.00017642800509929602	0.011713000297546386	0.9000369873046875	-0.01707539939880371	0.007263589859008789	0.9113419799804687	-0.033202098846435546	0.004709589958190918	0.930572021484375	-0.03474480056762695	0.01295479965209961	0.9627379760742187	-0.02229170036315918	0.05102750015258789	0.9086640014648437	-0.028992399215698243	0.04556039810180664	0.9251729736328125	-0.03442169952392578	0.040363300323486326	0.9406699829101562	-0.03796089935302734	0.03299480056762695	0.9651790161132813	-0.03804800033569336	0.03213510131835937	1.0345699462890625
